<svg aria-hidden="true" style="position: absolute; width: 0; height: 0; overflow: hidden;" version="1.1" xmlns="http://www.w3.org/2000/svg" xmlns:xlink="http://www.w3.org/1999/xlink">
<defs>
<symbol id="icon-arrows" viewBox="0 0 32 32">
<path d="M20.389 26.273c0.25 0.25 0.589 0.391 0.943 0.391s0.693-0.14 0.943-0.391l2.667-2.667c0.521-0.521 0.521-1.365 0-1.886s-1.365-0.521-1.886 0l-0.391 0.39v-14.38c0-0.736-0.597-1.333-1.333-1.333s-1.333 0.597-1.333 1.333v14.38l-0.391-0.39c-0.521-0.521-1.365-0.521-1.886 0s-0.521 1.365 0 1.886l2.667 2.667z"></path>
<path d="M11.611 6.789c-0.25-0.25-0.589-0.391-0.943-0.391s-0.693 0.14-0.943 0.391l-2.667 2.667c-0.521 0.521-0.521 1.365 0 1.886s1.365 0.521 1.886 0l0.391-0.39v14.914c0 0.736 0.597 1.333 1.333 1.333s1.333-0.597 1.333-1.333v-14.914l0.391 0.39c0.521 0.521 1.365 0.521 1.886 0s0.521-1.365 0-1.886l-2.667-2.667z"></path>
</symbol>
<symbol id="icon-btc" viewBox="0 0 32 32">
<path fill="#f7931a" style="fill: var(--color1, #f7931a)" d="M16 32c8.837 0 16-7.163 16-16s-7.163-16-16-16c-8.837 0-16 7.163-16 16s7.163 16 16 16z"></path>
<path fill="#fff" style="fill: var(--color2, #fff)" d="M23.189 14.020c0.314-2.096-1.283-3.223-3.465-3.975l0.708-2.84-1.728-0.43-0.69 2.765c-0.454-0.114-0.92-0.22-1.385-0.326l0.695-2.783-1.728-0.431-0.708 2.839c-0.376-0.086-0.746-0.17-1.104-0.26l0.002-0.009-2.384-0.595-0.46 1.846c0 0 1.283 0.294 1.256 0.312 0.7 0.175 0.826 0.638 0.805 1.006l-0.806 3.235c0.048 0.012 0.11 0.030 0.18 0.057l-0.183-0.045-1.13 4.532c-0.086 0.212-0.303 0.531-0.793 0.41 0.018 0.025-1.256-0.313-1.256-0.313l-0.858 1.978 2.25 0.561c0.418 0.105 0.828 0.215 1.231 0.318l-0.715 2.872 1.727 0.43 0.708-2.84c0.472 0.127 0.93 0.245 1.378 0.357l-0.706 2.828 1.728 0.43 0.715-2.866c2.948 0.558 5.164 0.333 6.097-2.333 0.752-2.146-0.037-3.385-1.588-4.192 1.13-0.26 1.98-1.003 2.207-2.538zM19.239 19.558c-0.533 2.147-4.148 0.986-5.32 0.695l0.95-3.805c1.172 0.293 4.929 0.872 4.37 3.11zM19.774 13.989c-0.487 1.953-3.495 0.96-4.47 0.717l0.86-3.45c0.975 0.243 4.118 0.696 3.61 2.733z"></path>
</symbol>
<symbol id="icon-ecoin" viewBox="0 0 32 32">
<path fill="#624dbf" style="fill: var(--color3, #624dbf)" d="M16 32c8.837 0 16-7.163 16-16s-7.163-16-16-16c-8.837 0-16 7.163-16 16s7.163 16 16 16z"></path>
<path fill="#fff" style="fill: var(--color2, #fff)" d="M22.313 9c0.494 0.057 0.994 0.088 1.482 0.176 0.967 0.183 1.283 0.643 1.119 1.576-0.066 0.378-0.31 0.611-0.698 0.674-0.231 0.033-0.465 0.049-0.698 0.050-3.173 0.007-6.353 0.013-9.526 0.026-0.48 0-0.955 0.044-1.422 0.12-1.574 0.246-2.166 0.87-2.298 2.388-0.060 0.713-0.060 0.713 0.685 0.713h13.028c0.205 0.006 0.402 0.044 0.573 0.15 0.58 0.354 0.435 0.908 0.402 1.419-0.026 0.41-0.283 0.636-0.724 0.718-0.185 0.028-0.373 0.041-0.56 0.038h-12.99c-0.48 0-0.473 0-0.434 0.454 0.033 0.416 0.060 0.826 0.165 1.229 0.197 0.75 0.678 1.216 1.455 1.424 0.862 0.233 1.751 0.284 2.64 0.29 3.1 0.019 6.195 0.013 9.296 0.013 0.395 0 0.763 0.050 0.994 0.397 0.448 0.668 0.099 1.6-0.685 1.84-0.671 0.208-1.376 0.258-2.074 0.265-2.91 0.050-5.82 0.057-8.73 0-0.897-0.023-1.791-0.122-2.672-0.296-2.074-0.41-3.108-1.418-3.457-3.41-0.079-0.46-0.125-0.926-0.184-1.387v-3.636c0.040-0.36 0.072-0.718 0.119-1.071 0.276-2.257 1.33-3.366 3.647-3.857 0.823-0.177 1.665-0.215 2.495-0.297 3.009-0.006 6.029-0.006 9.052-0.006z"></path>
</symbol>
<symbol id="icon-eth" viewBox="0 0 32 32">
<path fill="#627eea" style="fill: var(--color4, #627eea)" d="M16 32c8.837 0 16-7.163 16-16s-7.163-16-16-16c-8.837 0-16 7.163-16 16s7.163 16 16 16z"></path>
<path fill="#fff" style="fill: var(--color2, #fff)" opacity="0.602" d="M16.498 4v8.87l7.497 3.35-7.497-12.22z"></path>
<path fill="#fff" style="fill: var(--color2, #fff)" d="M16.498 4l-7.498 12.22 7.498-3.35v-8.87z"></path>
<path fill="#fff" style="fill: var(--color2, #fff)" opacity="0.602" d="M16.498 21.968v6.027l7.502-10.379-7.502 4.352z"></path>
<path fill="#fff" style="fill: var(--color2, #fff)" d="M16.498 27.995v-6.028l-7.498-4.351 7.498 10.379z"></path>
<path fill="#fff" style="fill: var(--color2, #fff)" opacity="0.2" d="M16.498 20.573l7.497-4.353-7.497-3.348v7.701z"></path>
<path fill="#fff" style="fill: var(--color2, #fff)" opacity="0.602" d="M9 16.22l7.498 4.353v-7.701l-7.498 3.348z"></path>
</symbol>
<symbol id="icon-header-link-arrow" viewBox="0 0 55 32">
<path d="M0.894 0.805c1.153-1.109 2.981-1.067 4.082 0.096l22.453 23.7 22.453-23.7c1.101-1.162 2.929-1.205 4.082-0.096s1.196 2.951 0.095 4.113l-24.541 25.905c-0.545 0.575-1.3 0.901-2.089 0.901s-1.544-0.326-2.088-0.901l-24.541-25.905c-1.101-1.162-1.058-3.004 0.095-4.113z"></path>
</symbol>
<symbol id="icon-header-logo" viewBox="0 0 307 32">
<path fill="#000" style="fill: var(--color5, #000)" d="M78.347 28.008h-0.253v3.439h-3.186v-31.447h3.313v13.168h0.253c0.671-1.133 3.104-4.069 7.676-4.069 6.163 0 10.608 4.78 10.608 11.491 0 6.666-4.445 11.405-10.861 11.405-4.74-0.004-7.005-3.189-7.549-3.987zM93.359 20.586c0-4.948-3.104-8.469-7.59-8.469-4.318 0-7.675 3.104-7.675 8.469 0 4.572 2.85 8.428 7.59 8.428 4.572 0 7.675-3.313 7.675-8.428z"></path>
<path fill="#000" style="fill: var(--color5, #000)" d="M103.002 24.867v-12.411h-4.11v-2.809h3.271c0.589 0 1.047-0.376 1.047-1.092v-5.239h3.104v6.33h6.711v2.809h-6.711v12.37c0 2.347 0.879 3.734 3.398 3.734h3.018v2.895h-3.23c-4.024-0.004-6.498-2.183-6.498-6.587z"></path>
<path fill="#000" style="fill: var(--color5, #000)" d="M116.148 20.545c0-6.457 4.739-11.446 11.156-11.446 4.74 0 9.14 2.85 10.317 7.717h-3.439c-0.879-2.85-3.648-4.695-6.793-4.695-4.654 0-7.798 3.689-7.798 8.428 0 4.907 3.312 8.428 7.884 8.428 3.145 0 5.954-1.844 6.793-4.695h3.398c-1.133 4.862-5.578 7.717-10.317 7.717-6.588-0.007-11.2-4.997-11.2-11.454z"></path>
<path fill="#000" style="fill: var(--color5, #000)" d="M147.931 9.643h3.313v3.145h0.253c1.047-2.012 3.145-3.689 6.375-3.689 3.271 0 5.66 1.595 6.878 3.983h0.294c1.468-2.809 3.857-3.983 6.919-3.983 4.862 0 8.012 3.439 8.012 8.22v14.133h-3.313v-13.041c0-4.11-2.053-6.207-5.283-6.207-3.063 0-5.746 2.18-5.746 6.248v13h-3.312v-13.674c0-3.48-2.347-5.578-5.41-5.578s-5.66 2.433-5.66 6.122v13.127h-3.313v-21.805h-0.007z"></path>
<path fill="#000" style="fill: var(--color5, #000)" d="M184.579 20.583c0-6.711 4.445-11.491 10.607-11.491 4.573 0 7.001 2.936 7.677 4.069h0.253v-3.521h3.313v21.805h-3.187v-3.439h-0.253c-0.544 0.797-2.809 3.983-7.549 3.983-6.417 0-10.861-4.736-10.861-11.405zM203.239 20.583c0-5.369-3.353-8.469-7.675-8.469-4.487 0-7.591 3.521-7.591 8.469 0 5.116 3.104 8.428 7.675 8.428 4.741 0 7.591-3.857 7.591-8.428z"></path>
<path fill="#000" style="fill: var(--color5, #000)" d="M212.48 9.645h3.271v4.069h0.254c0.63-1.844 2.767-4.069 5.954-4.069h1.844v3.312h-1.804c-3.983 0-6.206 3.104-6.206 7.255v11.238h-3.313v-21.805z"></path>
<path fill="#000" style="fill: var(--color5, #000)" d="M242.296 31.447l-6.92-10.902-3.646 3.901v7.001h-3.313v-31.447h3.313v19.919h0.253l9.352-10.273h4.192l-7.926 8.469 8.47 13.335-3.774-0.004z"></path>
<path fill="#000" style="fill: var(--color5, #000)" d="M248.022 20.545c0-6.96 4.739-11.446 10.693-11.446 6.626 0 10.568 4.862 10.568 11.156v1.468h-17.782c0.168 4.359 2.978 7.254 7.464 7.254 2.895 0 5.659-1.382 6.666-3.942h3.437c-1.214 4.069-5.029 6.96-10.146 6.96-6.664-0.004-10.902-4.907-10.902-11.45zM265.762 18.782c-0.295-4.359-3.353-6.666-7.047-6.666-3.646 0-6.792 2.642-7.128 6.666h14.174z"></path>
<path fill="#000" style="fill: var(--color5, #000)" d="M275.628 24.867v-12.411h-4.109v-2.809h3.271c0.589 0 1.048-0.376 1.048-1.092v-5.239h3.104v6.33h6.71v2.809h-6.71v12.37c0 2.347 0.879 3.734 3.397 3.734h3.018v2.895h-3.23c-4.024-0.004-6.498-2.183-6.498-6.587z"></path>
<path fill="#000" style="fill: var(--color5, #000)" d="M289.191 25.117h3.23c0.376 2.601 2.22 3.983 5.41 3.983 3.271 0 5.075-1.595 5.075-3.815 0-6.122-13.041-1.468-13.041-10.105 0-3.689 3.313-6.081 7.884-6.081 4.025 0 7.382 2.347 7.717 6.289h-3.185c-0.295-2.053-1.846-3.439-4.739-3.439-2.728 0-4.487 1.341-4.487 3.23 0 5.537 13.081 0.924 13.081 9.937 0 4.11-3.397 6.878-8.468 6.878-5.16-0.004-8.098-2.813-8.477-6.878z"></path>
<path fill="#00b287" style="fill: var(--color6, #00b287)" opacity="0.16000000000000003" d="M5.333 23.821l4.166 6.837c0.253 0.417-0.045 0.954-0.537 0.954h-8.331c-0.492 0-0.794-0.537-0.537-0.954l4.166-6.837c0.242-0.402 0.827-0.402 1.073 0z"></path>
<path fill="#00b287" style="fill: var(--color6, #00b287)" opacity="0.16000000000000003" d="M13.023 12.065l4.166 6.837c0.253 0.417-0.045 0.954-0.537 0.954h-8.331c-0.492 0-0.794-0.537-0.537-0.954l4.162-6.837c0.246-0.402 0.831-0.402 1.077 0z"></path>
<path fill="#00b287" style="fill: var(--color6, #00b287)" d="M51.475 23.821l4.166 6.837c0.253 0.417-0.045 0.954-0.537 0.954h-8.328c-0.492 0-0.794-0.537-0.537-0.954l4.166-6.837c0.242-0.402 0.823-0.402 1.069 0z"></path>
<path fill="#00b287" style="fill: var(--color6, #00b287)" d="M36.094 23.821l4.166 6.837c0.253 0.417-0.045 0.954-0.537 0.954h-8.331c-0.492 0-0.794-0.537-0.537-0.954l4.166-6.837c0.242-0.402 0.827-0.402 1.073 0z"></path>
<path fill="#00b287" style="fill: var(--color6, #00b287)" d="M20.714 23.821l4.162 6.837c0.253 0.417-0.045 0.954-0.537 0.954h-8.328c-0.492 0-0.794-0.537-0.537-0.954l4.166-6.837c0.242-0.402 0.827-0.402 1.073 0z"></path>
<path fill="#00b287" style="fill: var(--color6, #00b287)" d="M28.404 12.058l4.166 6.837c0.253 0.417-0.045 0.954-0.537 0.954h-8.331c-0.492 0-0.794-0.537-0.537-0.954l4.166-6.837c0.242-0.402 0.827-0.402 1.073 0z"></path>
<path fill="#00b287" style="fill: var(--color6, #00b287)" d="M36.094 0.302l4.166 6.837c0.253 0.417-0.045 0.954-0.537 0.954h-8.331c-0.492 0-0.794-0.537-0.537-0.954l4.166-6.837c0.242-0.402 0.827-0.402 1.073 0z"></path>
<path fill="#00b287" style="fill: var(--color6, #00b287)" d="M43.785 12.058l4.166 6.837c0.253 0.417-0.045 0.954-0.537 0.954h-8.328c-0.492 0-0.794-0.537-0.537-0.954l4.166-6.837c0.238-0.402 0.823-0.402 1.069 0z"></path>
</symbol>
<symbol id="icon-mob" viewBox="0 0 32 32">
<path d="M18.988 2.667h-5.977c-1.073-0-1.959-0-2.681 0.059-0.749 0.061-1.438 0.193-2.085 0.522-1.004 0.511-1.819 1.327-2.331 2.331-0.33 0.647-0.461 1.336-0.522 2.085-0.059 0.722-0.059 1.607-0.059 2.681v11.31c-0 1.073-0 1.959 0.059 2.681 0.061 0.75 0.193 1.438 0.522 2.085 0.511 1.004 1.327 1.82 2.331 2.331 0.647 0.33 1.336 0.461 2.085 0.522 0.722 0.059 1.607 0.059 2.681 0.059h5.977c1.073 0 1.959 0 2.681-0.059 0.75-0.061 1.438-0.193 2.085-0.522 1.003-0.511 1.819-1.327 2.331-2.331 0.33-0.647 0.461-1.336 0.522-2.085 0.059-0.722 0.059-1.607 0.059-2.681v-11.31c0-1.073 0-1.959-0.059-2.681-0.061-0.749-0.193-1.438-0.522-2.085-0.511-1.004-1.327-1.819-2.331-2.331-0.647-0.33-1.336-0.461-2.085-0.522-0.722-0.059-1.607-0.059-2.681-0.059zM9.456 5.624c0.209-0.106 0.507-0.193 1.092-0.241 0.392-0.032 0.858-0.044 1.452-0.048v1.331c0 0.736 0.597 1.333 1.333 1.333h5.333c0.736 0 1.333-0.597 1.333-1.333v-1.331c0.594 0.004 1.061 0.016 1.452 0.048 0.585 0.048 0.884 0.134 1.092 0.241 0.502 0.256 0.91 0.664 1.165 1.165 0.106 0.209 0.193 0.507 0.241 1.092 0.049 0.6 0.050 1.376 0.050 2.519v11.2c0 1.142-0.001 1.919-0.050 2.519-0.048 0.584-0.134 0.884-0.241 1.092-0.256 0.502-0.664 0.91-1.165 1.165-0.209 0.106-0.508 0.193-1.092 0.241-0.6 0.049-1.377 0.050-2.519 0.050h-5.867c-1.142 0-1.918-0.001-2.519-0.050-0.585-0.048-0.883-0.134-1.092-0.241-0.502-0.256-0.91-0.664-1.165-1.165-0.106-0.209-0.193-0.508-0.241-1.092-0.049-0.6-0.050-1.377-0.050-2.519v-11.2c0-1.142 0.001-1.919 0.050-2.519 0.048-0.585 0.134-0.883 0.241-1.092 0.256-0.502 0.664-0.91 1.165-1.165z"></path>
<path d="M16 25c1.105 0 2-0.895 2-2s-0.895-2-2-2c-1.105 0-2 0.895-2 2s0.895 2 2 2z"></path>
</symbol>
<symbol id="icon-security" viewBox="0 0 32 32">
<path d="M10.667 8.001c0-2.946 2.388-5.333 5.333-5.333s5.333 2.388 5.333 5.333v6.667h-2.667v-6.667c0-1.473-1.194-2.667-2.667-2.667s-2.667 1.194-2.667 2.667v6.667h-2.667v-6.667z"></path>
<path d="M13.012 12h5.977c1.073 0 1.959 0 2.681 0.059 0.749 0.061 1.438 0.193 2.086 0.522 1.004 0.511 1.819 1.327 2.331 2.331 0.33 0.647 0.461 1.336 0.522 2.086 0.059 0.722 0.059 1.607 0.059 2.681v1.977c0 1.073 0 1.959-0.059 2.681-0.061 0.749-0.193 1.438-0.522 2.086-0.511 1.004-1.327 1.819-2.331 2.331-0.647 0.33-1.336 0.461-2.086 0.522-0.722 0.059-1.607 0.059-2.681 0.059h-5.977c-1.073 0-1.959 0-2.681-0.059-0.749-0.061-1.438-0.193-2.086-0.522-1.003-0.511-1.819-1.327-2.331-2.331-0.33-0.647-0.461-1.336-0.522-2.086-0.059-0.722-0.059-1.607-0.059-2.681v-1.977c-0-1.073-0-1.959 0.059-2.681 0.061-0.75 0.193-1.438 0.522-2.086 0.511-1.004 1.327-1.819 2.331-2.331 0.647-0.33 1.336-0.461 2.086-0.522 0.722-0.059 1.607-0.059 2.681-0.059zM10.548 14.717c-0.585 0.048-0.884 0.134-1.092 0.241-0.502 0.256-0.91 0.664-1.165 1.165-0.106 0.208-0.193 0.507-0.241 1.092-0.049 0.6-0.050 1.376-0.050 2.519v1.867c0 1.142 0.001 1.918 0.050 2.519 0.048 0.585 0.134 0.883 0.241 1.092 0.256 0.502 0.664 0.91 1.165 1.165 0.209 0.106 0.508 0.193 1.092 0.241 0.6 0.049 1.376 0.050 2.519 0.050h5.867c1.142 0 1.918-0.001 2.519-0.050 0.585-0.048 0.884-0.134 1.092-0.241 0.502-0.256 0.91-0.664 1.165-1.165 0.106-0.209 0.193-0.507 0.241-1.092 0.049-0.6 0.050-1.377 0.050-2.519v-1.867c0-1.142-0.001-1.919-0.050-2.519-0.048-0.585-0.134-0.884-0.241-1.092-0.256-0.502-0.664-0.91-1.165-1.165-0.209-0.106-0.508-0.193-1.092-0.241-0.6-0.049-1.376-0.050-2.519-0.050h-5.867c-1.142 0-1.918 0.001-2.519 0.050z"></path>
<path d="M14.667 21.333c0-0.736 0.597-1.333 1.333-1.333s1.333 0.597 1.333 1.333v1.333c0 0.736-0.597 1.333-1.333 1.333s-1.333-0.597-1.333-1.333v-1.333z"></path>
</symbol>
<symbol id="icon-speed" viewBox="0 0 32 32">
<path d="M16.3 17.333h-6.883l6.944-8.845-0.661 6.178h6.896l-6.958 8.862 0.662-6.195zM19.506 4.152c0.142-1.332-1.548-2.019-2.375-0.965l-11.505 14.656c-0.687 0.875-0.064 2.157 1.049 2.157h6.658l-0.84 7.863c-0.142 1.332 1.548 2.018 2.374 0.965l11.519-14.671c0.687-0.875 0.064-2.157-1.049-2.157h-6.671l0.839-7.848z"></path>
</symbol>
<symbol id="icon-statistic" viewBox="0 0 32 32">
<path d="M4 26.667c0-0.736 0.597-1.333 1.333-1.333h21.333c0.736 0 1.333 0.597 1.333 1.333s-0.597 1.333-1.333 1.333h-21.333c-0.736 0-1.333-0.597-1.333-1.333z"></path>
<path d="M24 4c-0.736 0-1.333 0.597-1.333 1.333v6.667c0 0.736 0.597 1.333 1.333 1.333s1.333-0.597 1.333-1.333v-6.667c0-0.736-0.597-1.333-1.333-1.333zM13.333 9.333c-0.736 0-1.333 0.597-1.333 1.333v5.333c0 0.736 0.597 1.333 1.333 1.333s1.333-0.597 1.333-1.333v-5.333c0-0.736-0.597-1.333-1.333-1.333zM8 17.333c-0.736 0-1.333 0.597-1.333 1.333v2.667c0 0.736 0.597 1.333 1.333 1.333s1.333-0.597 1.333-1.333v-2.667c0-0.736-0.597-1.333-1.333-1.333zM17.333 10.667c0-0.736 0.597-1.333 1.333-1.333s1.333 0.597 1.333 1.333v1.333c0 0.736-0.597 1.333-1.333 1.333s-1.333-0.597-1.333-1.333v-1.333z"></path>
</symbol>
<symbol id="icon-support" viewBox="0 0 32 32">
<path d="M13.81 4h4.904c1.202 0 2.172-0 2.962 0.054 0.812 0.055 1.529 0.172 2.209 0.454 1.634 0.677 2.931 1.974 3.608 3.608 0.281 0.68 0.398 1.397 0.454 2.209 0.054 0.789 0.054 1.759 0.054 2.962v0.095c0 1.202 0 2.172-0.054 2.962-0.055 0.812-0.172 1.529-0.454 2.209-0.677 1.634-1.974 2.931-3.608 3.608-0.68 0.282-1.397 0.398-2.209 0.454-0.789 0.054-1.759 0.054-2.962 0.054h-3.476c-0.613 0-0.735 0.006-0.835 0.026-0.232 0.047-0.448 0.155-0.625 0.312-0.076 0.068-0.154 0.162-0.522 0.652l-0.029 0.038c-0.808 1.077-1.451 1.935-1.978 2.555-0.495 0.583-1.055 1.17-1.722 1.446-1.838 0.76-3.954 0.054-4.969-1.656-0.369-0.622-0.464-1.426-0.511-2.19-0.049-0.812-0.049-1.885-0.049-3.231v-6.81c-0-1.445-0-2.611 0.077-3.554 0.079-0.972 0.247-1.825 0.65-2.615 0.639-1.254 1.659-2.274 2.913-2.913 0.79-0.402 1.643-0.57 2.615-0.65 0.944-0.077 2.109-0.077 3.554-0.077zM10.472 6.735c-0.807 0.066-1.27 0.189-1.622 0.368-0.753 0.383-1.365 0.995-1.748 1.748-0.179 0.351-0.302 0.815-0.368 1.622-0.067 0.822-0.068 1.879-0.068 3.394v6.705c0 1.405 0.001 2.396 0.044 3.118 0.022 0.357 0.052 0.608 0.087 0.785 0.030 0.15 0.056 0.206 0.058 0.21 0.338 0.566 1.039 0.799 1.649 0.55 0.003-0.002 0.058-0.031 0.172-0.133 0.135-0.12 0.309-0.303 0.541-0.576 0.468-0.551 1.063-1.344 1.906-2.468 0.019-0.026 0.038-0.051 0.057-0.077 0.278-0.371 0.522-0.697 0.822-0.965 0.53-0.473 1.177-0.797 1.874-0.937 0.395-0.079 0.802-0.079 1.265-0.079 0.032 0 0.064 0 0.096 0h3.429c1.261 0 2.14-0.001 2.827-0.048 0.676-0.046 1.069-0.132 1.37-0.257 0.98-0.406 1.759-1.185 2.165-2.165 0.124-0.3 0.211-0.694 0.257-1.37 0.047-0.688 0.048-1.567 0.048-2.827s-0.001-2.14-0.048-2.827c-0.046-0.676-0.132-1.069-0.257-1.37-0.406-0.98-1.185-1.759-2.165-2.165-0.301-0.124-0.694-0.211-1.37-0.257-0.688-0.047-1.567-0.048-2.827-0.048h-4.8c-1.515 0-2.572 0.001-3.394 0.068z"></path>
<path d="M10.667 14.667c0.736 0 1.333-0.597 1.333-1.333s-0.597-1.333-1.333-1.333-1.333 0.597-1.333 1.333c0 0.736 0.597 1.333 1.333 1.333z"></path>
<path d="M17.333 13.333c0 0.736-0.597 1.333-1.333 1.333s-1.333-0.597-1.333-1.333c0-0.736 0.597-1.333 1.333-1.333s1.333 0.597 1.333 1.333z"></path>
<path d="M22.667 13.333c0 0.736-0.597 1.333-1.333 1.333s-1.333-0.597-1.333-1.333c0-0.736 0.597-1.333 1.333-1.333s1.333 0.597 1.333 1.333z"></path>
</symbol>
<symbol id="icon-tet" viewBox="0 0 32 32">
<path fill="#26a17b" style="fill: var(--color7, #26a17b)" d="M16 32c8.837 0 16-7.163 16-16s-7.163-16-16-16c-8.837 0-16 7.163-16 16s7.163 16 16 16z"></path>
<path fill="#fff" style="fill: var(--color2, #fff)" d="M17.922 17.383v-0.002c-0.11 0.008-0.677 0.042-1.942 0.042-1.010 0-1.721-0.030-1.971-0.042v0.003c-3.888-0.171-6.79-0.848-6.79-1.658 0-0.809 2.902-1.486 6.79-1.66v2.644c0.254 0.018 0.982 0.061 1.988 0.061 1.207 0 1.812-0.050 1.925-0.060v-2.643c3.88 0.173 6.775 0.85 6.775 1.658 0 0.81-2.895 1.485-6.775 1.657zM17.922 13.793v-2.366h5.414v-3.608h-14.741v3.608h5.414v2.365c-4.4 0.202-7.709 1.074-7.709 2.118s3.309 1.915 7.709 2.118v7.582h3.913v-7.584c4.393-0.202 7.694-1.073 7.694-2.116s-3.301-1.914-7.694-2.117z"></path>
</symbol>
<symbol id="icon-tracking" viewBox="0 0 32 32">
<path d="M2.872 20.748c-0.412-2.069-0.2-4.214 0.607-6.163s2.175-3.615 3.929-4.787c1.542-1.031 3.323-1.639 5.165-1.77 1.202-0.086 2.095 0.896 2.095 1.973v7.333h7.333c1.077 0 2.059 0.892 1.973 2.095-0.132 1.842-0.74 3.622-1.77 5.165-1.172 1.754-2.838 3.121-4.787 3.929s-4.094 1.019-6.163 0.607c-2.069-0.412-3.97-1.427-5.462-2.919s-2.508-3.392-2.919-5.462zM5.942 15.605c-0.606 1.462-0.764 3.070-0.455 4.622s1.071 2.977 2.189 4.096c1.119 1.119 2.544 1.881 4.096 2.189s3.16 0.15 4.622-0.455 2.711-1.631 3.59-2.946c0.63-0.942 1.049-2.003 1.236-3.111h-6.555c-1.473 0-2.667-1.194-2.667-2.667v-6.555c-1.108 0.187-2.169 0.607-3.111 1.236-1.316 0.879-2.341 2.128-2.946 3.59z"></path>
<path d="M17.333 4.667c0-1.077 0.892-2.059 2.095-1.973 1.14 0.082 2.262 0.346 3.321 0.785 1.294 0.536 2.47 1.322 3.46 2.312s1.776 2.166 2.312 3.46c0.439 1.059 0.703 2.181 0.785 3.321 0.086 1.203-0.896 2.095-1.973 2.095h-7.333c-1.473 0-2.667-1.194-2.667-2.667v-7.333zM20 5.445v6.555h6.555c-0.1-0.591-0.266-1.171-0.497-1.728-0.402-0.971-0.991-1.853-1.734-2.595s-1.625-1.332-2.595-1.734c-0.557-0.231-1.137-0.397-1.728-0.497z"></path>
</symbol>
<symbol id="icon-xrp" viewBox="0 0 32 32">
<path fill="#23292f" style="fill: var(--color8, #23292f)" d="M16 32c8.837 0 16-7.163 16-16s-7.163-16-16-16c-8.837 0-16 7.163-16 16s7.163 16 16 16z"></path>
<path fill="#fff" style="fill: var(--color2, #fff)" d="M23.070 8h2.89l-6.015 5.957c-1.052 1.036-2.469 1.617-3.945 1.617s-2.893-0.581-3.945-1.617l-6.020-5.957h2.895l4.57 4.523c0.665 0.657 1.563 1.025 2.498 1.025s1.832-0.368 2.498-1.025l4.574-4.523zM8.895 24.563h-2.895l6.055-5.993c1.052-1.036 2.469-1.617 3.945-1.617s2.893 0.581 3.945 1.617l6.055 5.992h-2.895l-4.605-4.562c-0.666-0.657-1.563-1.025-2.498-1.025s-1.832 0.368-2.498 1.025l-4.609 4.563z"></path>
</symbol>
</defs>
</svg>
